<?xml version="1.0" standalone="no"?>
<!DOCTYPE svg PUBLIC "-//W3C//DTD SVG 20010904//EN"
 "http://www.w3.org/TR/2001/REC-SVG-20010904/DTD/svg10.dtd">
<svg version="1.0" xmlns="http://www.w3.org/2000/svg"
 width="100.000000pt" height="100.000000pt" viewBox="0 0 100.000000 100.000000"
 preserveAspectRatio="xMidYMid meet">
<metadata>
Created by potrace 1.11, written by Peter Selinger 2001-2013
</metadata>
<g transform="translate(0.000000,100.000000) scale(0.100000,-0.100000)"
fill="#000000" stroke="none">
<path d="M408 965 c-2 -2 -19 -7 -38 -10 -71 -12 -160 -63 -227 -130 -36 -36
-63 -68 -61 -71 3 -2 34 24 69 59 99 99 203 141 340 139 115 -2 211 -44 302
-133 33 -32 62 -57 64 -56 1 2 -7 17 -19 33 -42 60 -167 139 -253 161 -26 7
-171 13 -177 8z"/>
<path d="M438 773 c-24 -6 -27 -24 -32 -193 -5 -159 -9 -178 -40 -190 -42 -16
-56 4 -56 80 0 63 2 69 22 72 13 2 24 11 26 21 3 15 -1 17 -23 11 l-26 -6 3
63 c3 63 3 64 -24 67 -30 4 -29 5 -33 -73 -2 -22 -3 -48 -4 -57 0 -10 -8 -18
-16 -18 -8 0 -15 -9 -15 -19 0 -13 5 -18 18 -14 18 4 18 5 13 -116 -1 -30 -86
-117 -124 -126 -46 -12 -56 -2 -52 52 1 26 11 71 22 98 15 39 27 54 58 70 43
23 53 39 35 60 -12 15 -35 10 -62 -12 -14 -13 -18 -12 -25 4 -10 20 -10 22 0
74 10 51 71 113 104 104 21 -5 24 -3 21 17 -3 20 -10 23 -48 26 -40 3 -51 -2
-86 -32 -79 -67 -98 -161 -45 -212 l29 -27 -28 -43 c-99 -156 -37 -290 105
-225 39 18 125 95 125 112 0 5 15 7 34 5 21 -3 45 2 64 14 20 12 32 15 34 8 7
-19 48 11 49 35 2 69 42 177 64 177 10 0 12 -18 8 -74 -5 -67 -3 -75 17 -89
24 -17 57 -14 99 8 15 7 43 13 64 12 23 -1 47 7 64 19 20 15 39 19 63 17 19
-3 49 1 65 8 29 12 37 14 78 18 10 0 17 9 17 20 0 14 -5 18 -20 14 -17 -5 -18
-1 -13 29 6 39 -16 91 -46 110 -15 9 -18 19 -14 43 6 38 -16 52 -48 32 -17
-10 -20 -19 -15 -54 3 -25 0 -57 -9 -80 -7 -21 -14 -36 -15 -33 -1 3 -3 21 -6
40 -8 63 -64 90 -78 38 -3 -15 3 -29 20 -45 22 -20 25 -29 19 -61 -9 -52 -30
-81 -54 -75 -36 9 -41 78 -11 148 24 55 25 65 6 65 -19 0 -74 -64 -82 -96 -4
-14 -4 -42 -1 -62 13 -79 14 -77 -16 -80 l-28 -3 4 86 c3 65 0 90 -10 101 -17
17 -16 17 -48 2 -16 -7 -37 -34 -55 -72 -22 -45 -29 -53 -26 -31 5 33 19 181
19 205 0 42 -1 42 -35 33z m462 -169 c14 -35 13 -57 -3 -78 -11 -15 -18 -16
-34 -8 -19 11 -19 13 -4 61 18 57 27 63 41 25z"/>
<path d="M929 473 c-11 -121 -47 -203 -128 -288 -167 -175 -447 -184 -630 -19
-28 25 -51 41 -51 36 0 -16 83 -85 140 -116 70 -38 149 -55 240 -51 41 1 76 4
78 5 1 1 5 3 10 4 126 30 246 126 308 249 27 52 58 187 43 187 -5 0 -9 -3 -10
-7z"/>
<path d="M450 340 c0 -5 5 -10 10 -10 6 0 10 5 10 10 0 6 -4 10 -10 10 -5 0
-10 -4 -10 -10z"/>
<path d="M480 340 c0 -5 5 -10 11 -10 5 0 7 5 4 10 -3 6 -8 10 -11 10 -2 0 -4
-4 -4 -10z"/>
<path d="M750 259 c0 -5 9 -9 21 -9 13 0 18 -4 13 -12 -4 -7 -3 -8 5 -4 6 4 9
11 6 15 -7 13 -45 21 -45 10z"/>
<path d="M726 241 c-3 -4 3 -16 14 -26 16 -15 23 -16 33 -6 9 10 8 11 -7 5
-15 -6 -18 -4 -13 9 4 12 2 14 -10 10 -11 -4 -14 -2 -9 5 4 7 5 12 2 12 -3 0
-7 -4 -10 -9z"/>
<path d="M715 211 c7 -12 -31 -34 -44 -27 -5 3 -15 -2 -22 -12 -12 -15 -12
-16 2 -5 9 7 18 10 21 8 3 -3 15 -7 26 -10 15 -2 19 1 16 10 -4 10 0 13 16 10
22 -4 22 -4 5 15 -19 21 -30 27 -20 11z"/>
<path d="M271 171 c-9 -16 -7 -18 15 -15 21 2 25 -1 21 -17 -3 -10 -1 -17 3
-14 5 3 11 -1 14 -7 3 -7 4 0 2 15 -3 21 0 27 11 23 8 -4 11 -1 8 5 -4 6 -13
8 -21 5 -8 -3 -14 0 -14 7 0 8 -4 6 -10 -3 -9 -13 -14 -7 -11 13 2 13 -8 7
-18 -12z"/>
<path d="M355 140 c-3 -6 1 -7 9 -4 18 7 21 14 7 14 -6 0 -13 -4 -16 -10z"/>
<path d="M588 143 c7 -3 16 -2 19 1 4 3 -2 6 -13 5 -11 0 -14 -3 -6 -6z"/>
<path d="M634 139 c-3 -6 -1 -16 5 -22 9 -9 10 -7 5 7 -6 15 -4 17 6 11 9 -5
11 -4 6 3 -9 15 -13 15 -22 1z"/>
<path d="M675 140 c-3 -5 -1 -10 4 -10 6 0 11 5 11 10 0 6 -2 10 -4 10 -3 0
-8 -4 -11 -10z"/>
<path d="M416 132 c-3 -4 4 -9 15 -9 23 -2 25 3 4 10 -8 4 -16 3 -19 -1z"/>
<path d="M522 128 c-14 -14 -16 -35 -4 -42 5 -3 8 5 8 17 -1 15 5 22 16 21 10
-1 15 2 12 7 -7 12 -18 11 -32 -3z"/>
<path d="M571 114 c0 -11 3 -14 6 -6 3 7 2 16 -1 19 -3 4 -6 -2 -5 -13z"/>
<path d="M445 100 c-10 -11 -14 -20 -9 -20 5 0 15 9 22 20 7 11 11 20 9 20 -2
0 -12 -9 -22 -20z"/>
<path d="M357 97 c3 -4 12 -7 21 -5 10 1 22 -1 28 -4 6 -4 11 -2 11 5 0 8 -14
12 -33 12 -18 0 -30 -4 -27 -8z"/>
<path d="M600 100 c-9 -6 -10 -10 -3 -10 6 0 15 5 18 10 8 12 4 12 -15 0z"/>
<path d="M471 93 c-1 -17 16 -25 25 -12 4 7 3 9 -4 5 -5 -3 -13 0 -15 6 -4 9
-6 10 -6 1z"/>
</g>
</svg>
